<svg width="16" height="16" viewBox="0 0 16 16" fill="none" xmlns="http://www.w3.org/2000/svg">
<path d="M0.500455 5.91668L1.39358 13.2251C1.41865 13.4383 1.5212 13.6348 1.68173 13.7773C1.84225 13.9198 2.04956 13.9983 2.26421 13.9979H13.733C13.9476 13.9983 14.1549 13.9198 14.3154 13.7773C14.476 13.6348 14.5785 13.4383 14.6036 13.2251L15.4955 5.91668C15.5016 5.8641 15.4966 5.81081 15.4807 5.76031C15.4648 5.70981 15.4384 5.66325 15.4032 5.62369C15.368 5.58413 15.3248 5.55248 15.2765 5.5308C15.2282 5.50913 15.1759 5.49792 15.123 5.49793H0.872955C0.820012 5.49792 0.767667 5.50913 0.719364 5.5308C0.671062 5.55248 0.627896 5.58413 0.592708 5.62369C0.55752 5.66325 0.531107 5.70981 0.515206 5.76031C0.499306 5.81081 0.494278 5.8641 0.500455 5.91668Z" fill="#161616"/>
<path d="M14.4991 3.87296C14.4991 3.64089 14.407 3.41833 14.2429 3.25424C14.0788 3.09014 13.8562 2.99796 13.6241 2.99796H7.65039L6.15039 1.99796H2.37415C2.14208 1.99796 1.91952 2.09014 1.75543 2.25424C1.59133 2.41833 1.49915 2.64089 1.49915 2.87296V4.49796H14.4991V3.87296Z" fill="#161616"/>
</svg>
