<svg width="12" height="12" viewBox="0 0 12 12" fill="none" xmlns="http://www.w3.org/2000/svg">
<path d="M0.37533 4.43751L1.04517 9.91883C1.06397 10.0787 1.14089 10.2261 1.26128 10.333C1.38168 10.4399 1.53716 10.4987 1.69814 10.4984H10.2997C10.4607 10.4987 10.6162 10.4399 10.7366 10.333C10.857 10.2261 10.9339 10.0787 10.9527 9.91883L11.6216 4.43751C11.6262 4.39807 11.6224 4.3581 11.6105 4.32023C11.5986 4.28235 11.5788 4.24743 11.5524 4.21776C11.526 4.1881 11.4936 4.16435 11.4574 4.1481C11.4212 4.13184 11.3819 4.12344 11.3422 4.12344H0.654705C0.614998 4.12344 0.575739 4.13184 0.539512 4.1481C0.503285 4.16435 0.470911 4.1881 0.44452 4.21776C0.418129 4.24743 0.398319 4.28235 0.386393 4.32023C0.374468 4.3581 0.370697 4.39807 0.37533 4.43751Z" fill="#333333"/>
<path d="M10.8744 2.90472C10.8744 2.73068 10.8052 2.56376 10.6821 2.44069C10.5591 2.31761 10.3921 2.24847 10.2181 2.24847H5.73779L4.61279 1.49847H1.7806C1.60655 1.49847 1.43963 1.56761 1.31656 1.69069C1.19349 1.81376 1.12435 1.98068 1.12435 2.15472V3.37347H10.8744V2.90472Z" fill="#333333"/>
</svg>
