<svg width="16" height="12" viewBox="0 0 16 12" fill="none" xmlns="http://www.w3.org/2000/svg">
<g clip-path="url(#clip0_2033_135)">
<path d="M14.752 0.944013C14.128 0.320013 13.12 0.320013 12.496 0.944013L5.776 7.66401L3.536 5.42401C2.912 4.80001 1.904 4.80001 1.28 5.42401C0.976 5.72801 0.816 6.12801 0.816 6.56001C0.816 6.99201 0.976 7.39201 1.28 7.69601L4.656 11.072C4.96 11.392 5.376 11.536 5.792 11.536C6.208 11.536 6.608 11.376 6.928 11.072L14.784 3.21601C15.376 2.57601 15.376 1.56801 14.752 0.944013ZM14.288 2.75201L6.432 10.608C6.064 10.976 5.456 10.976 5.072 10.608L1.712 7.23201C1.536 7.05601 1.424 6.81601 1.424 6.56001C1.424 6.30401 1.52 6.06401 1.712 5.88801C1.888 5.71201 2.128 5.60001 2.384 5.60001C2.64 5.60001 2.88 5.69601 3.056 5.88801L5.52 8.35201L5.552 8.38401C5.68 8.48001 5.856 8.48001 5.984 8.35201L6 8.33601L12.944 1.39201C13.312 1.02401 13.92 1.02401 14.304 1.39201C14.672 1.77601 14.672 2.38401 14.288 2.75201Z" fill="#80569C"/>
</g>
<defs>
<clipPath id="clip0_2033_135">
<rect width="16" height="12" fill="white"/>
</clipPath>
</defs>
</svg>
