<svg width="37" height="37" viewBox="0 0 37 37" fill="none" xmlns="http://www.w3.org/2000/svg">
<path d="M34.25 16.25H20.75V2.75C20.75 2.15326 20.5129 1.58097 20.091 1.15901C19.669 0.737053 19.0967 0.5 18.5 0.5C17.9033 0.5 17.331 0.737053 16.909 1.15901C16.4871 1.58097 16.25 2.15326 16.25 2.75V16.25H2.75C2.15326 16.25 1.58097 16.4871 1.15901 16.909C0.737053 17.331 0.5 17.9033 0.5 18.5C0.5 19.0967 0.737053 19.669 1.15901 20.091C1.58097 20.5129 2.15326 20.75 2.75 20.75H16.25V34.25C16.25 34.8467 16.4871 35.419 16.909 35.841C17.331 36.2629 17.9033 36.5 18.5 36.5C19.0967 36.5 19.669 36.2629 20.091 35.841C20.5129 35.419 20.75 34.8467 20.75 34.25V20.75H34.25C34.8467 20.75 35.419 20.5129 35.841 20.091C36.2629 19.669 36.5 19.0967 36.5 18.5C36.5 17.9033 36.2629 17.331 35.841 16.909C35.419 16.4871 34.8467 16.25 34.25 16.25Z" fill="#F4FAFF"/>
</svg>
