<svg width="24" height="24" viewBox="0 0 24 24" fill="none" xmlns="http://www.w3.org/2000/svg">
<g clip-path="url(#clip0_5_918)">
<path d="M20.2471 5.9975H3.74833C2.50578 5.9975 1.4985 7.00478 1.4985 8.24733V18.7465C1.4985 19.9891 2.50578 20.9964 3.74833 20.9964H20.2471C21.4896 20.9964 22.4969 19.9891 22.4969 18.7465V8.24733C22.4969 7.00478 21.4896 5.9975 20.2471 5.9975Z" stroke="#064148" stroke-width="1.49989" stroke-linejoin="round"/>
<path d="M6.74987 5.99727V4.49738C6.74987 4.09959 6.90789 3.71809 7.18918 3.4368C7.47046 3.15552 7.85196 2.9975 8.24976 2.9975H15.7492C16.147 2.9975 16.5285 3.15552 16.8098 3.4368C17.0911 3.71809 17.2491 4.09959 17.2491 4.49738V5.99727" stroke="#064148" stroke-width="1.49989" stroke-linecap="round" stroke-linejoin="round"/>
<path d="M22.4969 11.247H1.4985" stroke="#064148" stroke-width="1.49989" stroke-linecap="round" stroke-linejoin="round"/>
<path d="M14.9973 11.247V12.3719C14.9973 12.4714 14.9578 12.5667 14.8875 12.6371C14.8172 12.7074 14.7218 12.7469 14.6223 12.7469H9.37274C9.27329 12.7469 9.17791 12.7074 9.10759 12.6371C9.03727 12.5667 8.99776 12.4714 8.99776 12.3719V11.247" stroke="#064148" stroke-width="1.49989" stroke-linecap="round" stroke-linejoin="round"/>
</g>
<defs>
<clipPath id="clip0_5_918">
<rect width="23.9982" height="23.9982" fill="white" transform="translate(0.000907898 0.000915527)"/>
</clipPath>
</defs>
</svg>
